<?xml version="1.0" standalone="no"?>
<!DOCTYPE svg PUBLIC "-//W3C//DTD SVG 20010904//EN"
 "http://www.w3.org/TR/2001/REC-SVG-20010904/DTD/svg10.dtd">
<svg version="1.0" xmlns="http://www.w3.org/2000/svg"
 width="3072.000000pt" height="3072.000000pt" viewBox="0 0 3072.000000 3072.000000"
 preserveAspectRatio="xMidYMid meet">
<metadata>
Created by potrace 1.11, written by Peter Selinger 2001-2013
</metadata>
<g transform="translate(0.000000,3072.000000) scale(0.100000,-0.100000)"
fill="#000000" stroke="none">
<path d="M18612 29176 l0 -313 239 0 c132 0 242 -3 246 -6 3 -4 6 -801 7
-1772 1 -1562 -1 -1765 -14 -1766 -8 0 -119 -1 -247 -1 l-231 -1 0 -313 0
-314 549 0 c516 0 549 1 550 18 0 9 1 88 1 175 l0 158 25 -16 c13 -9 33 -24
44 -33 68 -59 213 -137 394 -213 60 -25 173 -53 300 -73 80 -13 369 -14 430
-2 184 38 244 54 330 88 404 161 721 474 888 879 32 77 61 164 72 215 2 11 11
52 19 92 35 160 40 435 11 582 -3 14 -8 41 -11 60 -3 19 -17 75 -31 123 -134
475 -465 850 -920 1041 -67 28 -220 75 -268 81 -16 3 -41 7 -55 10 -87 18
-326 25 -429 11 -269 -34 -531 -140 -737 -297 -28 -22 -53 -39 -56 -39 -3 0
-5 435 -5 968 l0 967 -550 3 -551 2 0 -314z m2179 -1870 c206 -20 413 -117
571 -268 77 -73 155 -175 189 -244 13 -27 27 -51 30 -54 3 -3 8 -14 12 -25 3
-11 17 -50 31 -87 31 -81 40 -122 51 -228 6 -56 7 -188 1 -215 -2 -11 -7 -42
-10 -68 -26 -194 -166 -447 -319 -580 -213 -183 -427 -262 -691 -253 -262 9
-476 103 -662 291 -140 143 -227 308 -273 520 -3 17 -5 113 -5 215 1 170 3
192 28 275 114 382 422 658 797 714 123 18 131 19 250 7z"/>
<path d="M8472 29150 l1 -330 205 -2 205 -3 74 -180 c41 -99 132 -319 203
-490 70 -170 248 -600 394 -955 147 -355 275 -665 286 -690 18 -42 259 -625
355 -860 24 -58 59 -142 78 -187 19 -46 32 -84 29 -85 -4 -1 -150 -2 -325 -3
-174 -1 -320 -5 -324 -8 -4 -5 -7 -429 -4 -627 l1 -35 878 2 c482 1 888 2 902
2 l25 1 0 326 c0 299 -1 328 -17 333 -10 3 -141 6 -292 5 l-274 -1 8 21 c12
32 60 149 70 171 5 11 32 76 60 145 28 69 55 134 60 145 5 11 21 49 35 85 14
36 30 74 35 85 5 11 27 65 50 120 23 55 52 125 65 155 34 80 89 214 91 220 1
7 13 37 34 85 17 39 133 318 332 800 95 230 122 294 152 360 l14 30 10 -25
c23 -58 175 -427 187 -455 8 -16 23 -52 33 -80 11 -27 185 -450 387 -940 202
-489 368 -897 369 -905 1 -13 -40 -15 -309 -16 l-310 -1 0 -327 c0 -190 4
-330 9 -333 7 -5 1669 -8 1784 -4 l22 1 0 330 c0 307 -1 330 -17 331 -10 0
-151 1 -315 1 -267 1 -296 3 -291 17 8 21 121 298 138 336 7 17 45 109 85 205
39 96 77 189 85 205 7 17 167 401 355 855 188 454 347 839 355 855 7 17 45
109 85 205 40 96 80 193 89 215 10 22 67 158 126 303 l109 262 203 0 203 0 0
48 c1 26 1 173 2 327 l1 280 -774 3 -774 2 0 -327 0 -328 214 -3 c164 -2 212
-5 208 -15 -18 -42 -181 -427 -192 -452 -18 -40 -237 -557 -391 -925 -69 -162
-129 -304 -134 -315 -5 -11 -41 -96 -80 -190 -39 -93 -76 -179 -81 -190 -5
-11 -33 -78 -63 -150 -42 -100 -56 -125 -62 -110 -4 11 -15 38 -24 60 -18 41
-642 1518 -653 1545 -3 8 -75 177 -159 375 l-154 360 248 3 248 2 0 330 0 330
-773 0 -774 0 0 -330 -1 -330 245 0 c192 0 244 -3 240 -12 -15 -38 -119 -286
-127 -303 -36 -80 -60 -136 -60 -141 0 -3 -10 -26 -21 -52 -12 -25 -46 -105
-76 -177 -30 -71 -61 -143 -68 -160 -24 -53 -203 -479 -213 -505 -6 -14 -19
-46 -30 -70 -12 -25 -57 -130 -100 -235 -44 -104 -126 -298 -182 -430 -56
-132 -104 -246 -107 -252 -6 -15 -23 -17 -23 -3 0 8 -108 268 -155 375 -8 17
-37 86 -66 155 -28 69 -59 143 -69 165 -10 22 -48 112 -85 200 -37 88 -74 176
-82 195 -27 61 -38 89 -153 360 -61 146 -116 274 -121 285 -29 62 -249 590
-249 597 0 4 95 8 210 8 l210 0 0 330 0 330 -774 0 -774 0 0 -330z"/>
<path d="M16420 27875 c-398 -58 -735 -251 -997 -570 -149 -182 -278 -452
-322 -675 -19 -99 -21 -114 -28 -195 -17 -195 -2 -387 43 -563 117 -453 418
-827 829 -1032 120 -60 149 -71 280 -109 117 -33 268 -54 395 -54 65 1 219 12
240 18 8 2 31 6 50 9 119 19 278 70 398 129 69 34 158 84 177 99 6 5 42 32 80
60 127 94 298 282 364 399 l22 38 -395 0 -395 0 -37 -26 c-86 -57 -227 -113
-332 -130 -26 -4 -110 -7 -187 -7 -119 2 -153 6 -230 28 -311 91 -552 313
-664 611 -13 33 -24 67 -26 76 -3 14 109 16 1232 15 679 -1 1239 2 1244 5 19
11 31 118 31 277 0 195 -30 380 -93 557 -45 129 -131 293 -206 395 -18 25 -43
59 -55 75 -42 57 -214 222 -288 276 -197 145 -431 247 -650 284 -19 4 -48 9
-65 12 -66 11 -334 10 -415 -2z m350 -580 c355 -56 671 -323 789 -668 l20 -57
-949 0 -949 0 9 28 c33 112 119 272 186 348 11 12 33 36 49 55 141 159 373
275 605 302 42 5 192 0 240 -8z"/>
<path d="M23748 23285 c-2 -2 -48 -6 -103 -9 -55 -4 -107 -9 -115 -11 -8 -2
-42 -6 -75 -10 -54 -5 -90 -10 -150 -21 -57 -11 -133 -25 -155 -29 -14 -2 -72
-16 -130 -31 -585 -145 -1127 -434 -1585 -843 -639 -571 -1041 -1245 -1214
-2031 -11 -52 -23 -111 -26 -130 -3 -19 -10 -60 -15 -90 -5 -30 -12 -80 -16
-110 -3 -30 -7 -66 -9 -78 -17 -106 -20 -644 -20 -3582 0 -2940 3 -3434 20
-3550 2 -14 7 -47 10 -75 69 -556 271 -1098 584 -1569 36 -54 71 -106 76 -115
6 -9 12 -18 15 -21 3 -3 25 -32 50 -65 216 -286 498 -568 780 -779 63 -47 121
-91 128 -97 7 -5 74 -49 150 -97 256 -161 544 -297 821 -386 101 -33 305 -88
371 -100 14 -3 50 -10 80 -16 30 -6 71 -13 90 -16 19 -3 42 -7 50 -9 8 -2 42
-7 75 -10 33 -4 71 -8 84 -10 163 -27 760 -27 921 -1 14 3 50 7 81 11 31 3 67
8 80 10 23 5 40 8 119 22 19 3 44 7 55 9 11 3 34 7 50 9 60 11 326 86 427 121
118 41 322 125 388 160 25 13 51 24 57 24 7 0 13 3 13 8 0 4 15 13 33 21 52
22 295 168 395 238 81 56 234 174 319 246 117 99 319 300 436 435 151 174 340
437 422 587 15 28 31 55 35 60 19 24 143 280 186 385 42 104 89 231 99 270 2
8 18 59 34 112 28 92 73 280 85 358 8 49 15 91 20 115 3 11 8 45 11 75 3 30 8
69 10 85 17 138 20 634 20 3575 0 1840 -2 3370 -4 3400 -5 69 -30 295 -37 335
-3 17 -7 41 -9 55 -6 40 -14 86 -31 163 -8 39 -17 80 -19 90 -41 194 -159 523
-266 742 -245 504 -586 929 -1069 1335 -257 215 -640 443 -956 568 -202 80
-498 170 -623 188 -20 3 -44 7 -53 10 -10 3 -30 7 -45 10 -16 2 -37 6 -48 9
-11 2 -42 7 -70 10 -27 3 -59 8 -71 10 -11 3 -52 7 -90 11 -38 3 -85 8 -104
10 -40 6 -567 14 -572 9z m522 -1479 c14 -3 59 -10 100 -15 292 -41 594 -153
860 -319 197 -124 485 -384 634 -572 192 -243 332 -516 409 -795 28 -101 46
-180 53 -240 3 -22 7 -46 10 -53 2 -7 7 -50 11 -95 10 -109 10 -6692 0 -6783
-4 -39 -10 -82 -13 -95 -2 -13 -7 -40 -10 -59 -2 -19 -9 -55 -15 -80 -5 -25
-12 -56 -14 -69 -19 -105 -104 -331 -180 -483 -277 -549 -842 -1035 -1395
-1197 -41 -13 -86 -27 -100 -32 -26 -9 -107 -28 -150 -34 -14 -2 -51 -9 -83
-14 -130 -22 -230 -30 -407 -30 -179 -1 -262 6 -435 34 -296 48 -584 161 -840
329 -215 141 -373 281 -567 503 -109 125 -239 329 -323 507 -50 104 -126 310
-139 376 -3 14 -12 59 -21 100 -9 41 -18 89 -21 105 -2 17 -6 41 -9 55 -18 88
-20 501 -20 3475 0 2880 3 3393 19 3482 2 10 7 38 11 63 14 89 68 297 101 390
239 666 875 1271 1536 1461 255 73 452 98 748 94 124 -2 236 -6 250 -9z"/>
<path d="M3475 23245 c-192 -42 -348 -152 -463 -324 -131 -199 -149 -487 -43
-706 44 -90 61 -113 146 -199 85 -86 120 -113 200 -151 155 -75 -92 -69 2635
-71 1345 -2 2459 -3 2477 -3 l32 -1 -24 -47 c-13 -27 -49 -104 -81 -173 -31
-69 -81 -176 -110 -239 -30 -62 -54 -115 -54 -116 0 -2 -25 -56 -55 -120 -30
-65 -55 -119 -55 -120 0 -2 -29 -65 -65 -140 -36 -76 -65 -139 -65 -140 0 -2
-22 -50 -49 -107 -27 -56 -61 -130 -76 -163 -15 -33 -40 -87 -55 -120 -15 -33
-43 -94 -63 -135 -33 -72 -56 -122 -113 -247 -15 -32 -51 -109 -80 -172 -30
-62 -54 -115 -54 -117 0 -2 -27 -60 -60 -129 -33 -69 -60 -127 -60 -129 0 -2
-29 -65 -65 -141 -36 -75 -65 -138 -65 -140 0 -2 -27 -60 -60 -130 -33 -70
-60 -128 -60 -130 0 -2 -27 -61 -60 -131 -33 -69 -60 -128 -60 -129 0 -2 -22
-49 -49 -106 -26 -57 -86 -185 -131 -284 -45 -99 -105 -227 -131 -284 -27 -57
-49 -104 -49 -106 0 -1 -29 -64 -65 -139 -36 -75 -65 -138 -65 -140 0 -3 -20
-46 -44 -98 -24 -51 -53 -113 -64 -138 -11 -25 -48 -103 -81 -173 -34 -71 -61
-130 -61 -132 0 -2 -21 -47 -46 -102 -154 -328 -172 -385 -172 -540 0 -100 15
-195 42 -257 7 -17 19 -44 26 -61 25 -61 103 -166 170 -228 80 -74 216 -150
285 -158 6 -1 20 -5 31 -10 25 -9 125 -17 309 -24 72 -3 139 -7 150 -9 11 -2
47 -7 80 -11 475 -58 948 -297 1315 -665 135 -134 162 -165 246 -280 196 -267
311 -501 384 -785 57 -220 74 -363 74 -625 1 -261 -17 -411 -74 -634 -75 -292
-223 -583 -426 -836 -93 -116 -308 -331 -409 -408 -413 -314 -784 -458 -1285
-497 -122 -10 -402 -4 -490 10 -14 2 -45 7 -70 10 -36 5 -191 36 -245 49 -136
32 -352 117 -495 194 -276 147 -589 417 -790 682 -19 25 -37 47 -41 50 -3 3
-8 10 -10 15 -2 6 -29 48 -60 95 -129 195 -248 469 -294 676 -48 221 -62 332
-69 579 -2 66 -11 150 -20 187 -45 192 -215 402 -393 488 -227 110 -513 92
-717 -44 -49 -33 -155 -134 -194 -186 -64 -86 -115 -199 -129 -287 -15 -92 -8
-482 12 -618 2 -16 7 -50 10 -75 3 -25 8 -58 10 -73 2 -15 7 -47 10 -70 4 -23
13 -70 20 -103 8 -34 16 -73 19 -87 22 -121 112 -407 183 -582 51 -126 177
-383 217 -441 14 -21 26 -42 26 -46 0 -11 157 -245 224 -333 499 -661 1148
-1134 1891 -1379 97 -33 341 -96 420 -111 92 -16 207 -34 255 -40 30 -4 62 -9
70 -10 142 -26 803 -26 941 0 9 2 40 6 70 10 30 3 90 13 134 21 44 8 96 17
115 20 19 3 71 15 115 26 44 11 89 22 99 24 33 6 198 56 268 80 184 65 437
179 608 276 173 98 468 307 596 423 6 6 39 35 73 65 417 364 814 920 1011
1415 51 126 131 363 145 429 2 12 13 56 24 98 19 71 42 189 56 278 3 19 7 46
10 60 2 14 7 52 11 85 3 33 8 67 9 75 19 100 26 586 11 750 -4 47 -9 101 -10
120 -4 55 -45 320 -51 330 -2 3 -6 24 -10 47 -11 80 -88 360 -119 441 -14 34
-25 64 -25 65 0 1 -4 15 -10 30 -6 16 -11 31 -11 34 0 3 -7 21 -16 41 -9 21
-20 46 -24 57 -105 254 -248 509 -416 743 -52 73 -103 143 -113 155 -248 298
-439 488 -671 668 -340 264 -698 456 -1112 594 -88 29 -162 55 -164 58 -2 2
64 152 147 333 83 181 165 358 181 394 49 108 78 170 129 279 27 57 49 105 49
107 0 2 25 56 55 119 30 64 55 118 55 120 0 2 22 50 49 107 27 56 60 128 74
158 185 404 292 637 361 783 25 54 46 100 46 102 0 2 21 48 46 102 59 127 69
148 214 463 138 301 151 328 214 463 25 54 46 100 46 102 0 2 27 60 60 130 33
70 60 128 60 130 0 2 23 52 51 112 28 59 70 151 94 203 24 52 60 131 81 175
21 44 38 82 38 85 1 3 11 25 23 50 41 84 123 262 123 265 0 2 20 45 44 97 24
51 53 116 66 143 12 28 41 88 63 135 74 159 104 236 122 310 83 364 -144 746
-510 857 -57 17 -195 18 -3165 20 -2546 1 -3116 -1 -3165 -12z"/>
<path d="M15277 23224 c-1 -1 -18 -5 -37 -8 -157 -25 -353 -132 -446 -243 -79
-94 -102 -141 -192 -398 -39 -110 -110 -310 -158 -445 -47 -135 -110 -312
-139 -395 -29 -82 -72 -202 -94 -265 -23 -63 -44 -122 -46 -130 -1 -8 -15 -46
-30 -85 -15 -38 -28 -77 -30 -85 -2 -8 -14 -44 -28 -80 -14 -36 -32 -85 -40
-110 -17 -54 -90 -260 -261 -740 -70 -195 -129 -362 -131 -370 -4 -17 -81
-232 -96 -268 -5 -13 -19 -52 -30 -85 -21 -64 -63 -182 -104 -297 -13 -36 -53
-148 -89 -250 -61 -175 -126 -357 -182 -515 -14 -38 -26 -74 -28 -80 -1 -5 -4
-14 -7 -20 -4 -5 -12 -28 -18 -50 -7 -22 -16 -49 -21 -60 -5 -11 -82 -227
-171 -480 -191 -543 -240 -683 -321 -910 -33 -93 -84 -237 -113 -320 -72 -204
-115 -326 -170 -480 -26 -71 -55 -155 -65 -185 -10 -30 -23 -66 -29 -80 -5
-14 -54 -149 -107 -300 -140 -400 -196 -559 -247 -700 -25 -69 -50 -143 -57
-165 -7 -22 -21 -58 -31 -80 -53 -119 -146 -458 -184 -670 -14 -80 -25 -157
-31 -206 -3 -30 -7 -64 -9 -75 -23 -143 -23 -660 0 -814 2 -14 7 -50 10 -80
15 -132 60 -371 91 -480 8 -30 17 -66 20 -80 19 -93 148 -431 229 -600 347
-723 1032 -1417 1750 -1773 77 -38 148 -73 157 -78 96 -48 449 -172 553 -194
6 -1 28 -7 50 -13 50 -14 275 -59 335 -67 25 -3 62 -8 82 -11 174 -24 276 -29
538 -29 217 0 319 5 470 21 51 5 125 15 140 19 8 2 38 7 65 11 28 3 77 12 110
19 33 8 71 16 85 19 126 22 447 124 610 193 341 145 652 335 957 588 124 103
369 343 468 460 37 44 77 91 89 105 40 47 163 215 223 305 167 250 315 555
414 849 38 114 101 344 112 411 3 17 10 53 16 82 6 29 13 74 17 100 3 26 8 55
9 63 2 9 6 43 10 75 4 33 9 71 11 85 23 134 22 679 -2 855 -31 235 -35 259
-60 385 -93 459 -283 910 -557 1320 -28 41 -53 77 -57 80 -3 3 -17 21 -30 40
-54 79 -225 283 -329 392 -109 114 -276 267 -396 362 -33 26 -67 53 -75 59
-77 61 -238 169 -357 240 -481 285 -1004 450 -1598 505 -160 14 -689 6 -791
-12 -10 -2 -41 -7 -69 -10 -128 -18 -155 -23 -421 -81 -37 -8 -199 -56 -242
-72 -23 -9 -45 -14 -47 -11 -3 2 11 48 30 102 19 53 55 156 81 229 25 73 49
141 54 152 10 23 71 195 74 210 2 6 6 17 9 25 3 8 36 101 72 205 37 105 91
258 120 340 29 83 99 281 155 440 56 160 105 299 110 310 5 11 16 40 24 65 8
25 35 104 61 175 26 72 48 135 49 140 2 6 6 17 9 25 4 8 22 61 42 118 39 112
92 264 126 357 12 33 39 112 60 175 22 63 43 124 48 135 10 21 71 193 75 210
2 6 6 17 9 25 3 8 52 146 107 305 56 160 105 299 110 310 5 11 18 47 29 80 11
33 39 112 61 175 23 63 43 120 44 125 2 6 6 17 9 25 4 8 79 222 167 475 89
253 165 469 171 480 50 108 60 333 19 455 -92 272 -301 463 -558 512 -50 9
-208 18 -215 12z m209 -7658 c71 -3 137 -7 145 -10 7 -2 39 -7 69 -11 374 -41
782 -218 1110 -482 115 -92 310 -287 402 -403 191 -239 343 -530 415 -790 22
-83 52 -216 58 -263 3 -23 7 -60 10 -82 18 -139 20 -187 19 -335 -1 -142 -8
-275 -19 -331 -2 -9 -6 -39 -10 -67 -10 -83 -70 -310 -110 -417 -214 -581
-730 -1121 -1301 -1362 -189 -81 -402 -138 -619 -168 -78 -11 -482 -14 -565
-4 -316 36 -548 103 -797 230 -250 126 -412 247 -634 471 -330 333 -537 703
-629 1126 -11 50 -22 107 -25 126 -3 20 -7 53 -10 73 -28 196 -23 593 10 739
3 12 7 39 11 60 3 21 19 90 35 151 83 323 256 650 484 913 143 165 400 391
554 485 173 107 322 178 486 234 118 40 301 84 400 96 28 4 61 8 75 11 14 2
81 7 150 10 69 4 127 8 128 10 2 1 9 1 15 -1 7 -2 71 -6 143 -9z"/>
<path d="M5790 7838 c-118 -12 -154 -18 -228 -38 -351 -96 -645 -323 -834
-645 -34 -58 -110 -225 -102 -225 2 0 -2 -12 -10 -27 -11 -23 -29 -89 -52
-198 -18 -84 -24 -302 -10 -406 35 -281 202 -567 436 -748 36 -28 70 -55 75
-59 31 -25 136 -88 213 -126 190 -95 362 -151 622 -201 14 -3 45 -7 70 -10
135 -17 208 -27 235 -31 17 -3 41 -7 55 -9 131 -18 344 -82 450 -134 178 -88
290 -202 354 -360 34 -84 40 -128 40 -281 0 -147 -17 -232 -71 -347 -98 -211
-290 -380 -514 -452 -125 -41 -168 -46 -384 -46 -259 0 -385 20 -560 87 -123
47 -192 85 -287 156 l-58 43 0 234 0 233 -350 1 -350 0 0 -330 c0 -181 4 -329
8 -329 5 0 23 -20 40 -43 36 -51 145 -164 217 -226 148 -126 390 -259 600
-329 157 -53 253 -73 464 -97 110 -13 535 -6 601 10 3 1 25 5 50 9 576 101
1056 562 1169 1124 11 53 23 120 26 147 7 55 7 286 1 325 -2 14 -7 48 -11 75
-11 80 -50 220 -82 295 -135 316 -376 558 -715 720 -87 41 -280 113 -337 125
-9 2 -45 10 -81 19 -36 8 -81 18 -100 21 -19 3 -42 8 -50 10 -18 5 -99 13
-190 20 -194 14 -428 59 -550 106 -221 85 -344 231 -385 454 -14 75 -6 208 17
290 6 22 12 45 14 50 1 6 12 33 24 60 95 212 294 371 525 419 64 14 233 15
341 2 130 -15 329 -85 435 -152 l36 -22 -1 -271 c-1 -234 1 -271 14 -272 79
-4 672 0 676 4 5 4 8 655 5 792 -2 51 -231 254 -386 343 -283 161 -588 241
-945 246 -58 0 -134 -2 -170 -6z"/>
<path d="M9727 6204 c-1 -1 -39 -5 -84 -8 -46 -4 -93 -9 -105 -12 -13 -2 -37
-6 -54 -8 -56 -8 -218 -57 -304 -93 -275 -114 -526 -317 -704 -572 -143 -204
-257 -499 -281 -726 -4 -33 -8 -71 -11 -85 -11 -62 -4 -306 11 -391 3 -14 7
-41 9 -60 8 -58 44 -193 76 -280 184 -498 595 -880 1091 -1013 92 -24 122 -30
244 -46 64 -8 330 -5 380 5 17 3 55 10 85 16 30 6 66 12 80 15 63 13 237 77
321 120 94 47 245 143 287 183 14 14 22 17 22 9 4 -116 0 -1360 -4 -1366 -3
-5 -102 -10 -223 -10 -120 0 -227 0 -238 -1 -20 -1 -20 -8 -20 -326 l0 -325
785 0 785 0 0 320 c0 231 -3 323 -12 328 -6 4 -108 6 -227 6 l-216 -1 0 1832
0 1833 173 0 c94 0 191 1 213 1 l42 1 0 325 c1 300 0 325 -16 326 -9 0 -246 1
-527 1 l-510 1 -2 -169 c-1 -93 -2 -175 -3 -182 0 -8 -25 5 -57 30 -198 149
-445 259 -653 292 -19 3 -46 8 -59 10 -50 11 -286 26 -294 20z m201 -614 c20
-5 51 -11 68 -13 48 -7 151 -45 229 -84 198 -99 361 -265 464 -471 43 -84 87
-223 96 -296 12 -111 7 -317 -10 -401 -72 -346 -321 -636 -650 -760 -133 -50
-339 -74 -467 -54 -29 5 -67 11 -85 14 -17 2 -67 16 -110 31 -242 81 -449 257
-573 487 -38 71 -85 184 -94 229 -3 13 -8 34 -11 48 -25 110 -30 312 -10 410
18 94 50 192 89 274 142 303 418 519 741 581 70 13 270 16 323 5z"/>
<path d="M19291 6043 c0 -93 0 -183 0 -201 l-1 -33 -57 42 c-132 95 -243 157
-368 206 -80 31 -146 53 -155 52 -3 0 -18 4 -33 10 -15 6 -42 13 -60 16 -18 3
-39 8 -47 10 -75 20 -368 27 -490 12 -214 -26 -470 -124 -659 -252 -199 -133
-362 -304 -483 -505 -103 -171 -185 -389 -212 -560 -3 -19 -8 -46 -11 -60 -14
-75 -21 -340 -11 -400 2 -14 7 -48 10 -77 13 -118 54 -275 103 -393 215 -519
641 -877 1179 -989 146 -30 402 -33 546 -6 27 6 62 12 103 21 171 34 392 137
560 259 39 28 75 54 80 57 7 4 9 -56 8 -175 l-3 -182 530 0 c292 0 531 2 531
5 1 3 2 145 3 317 1 270 -1 312 -14 315 -8 2 -108 4 -222 3 l-208 0 -1 50 c0
27 0 629 0 1338 l-1 1287 -308 0 -309 0 0 -167z m-836 -487 c28 -4 91 -21 140
-37 317 -105 556 -350 658 -674 35 -112 38 -139 38 -315 0 -110 -5 -178 -17
-230 -83 -372 -374 -677 -734 -770 -138 -36 -305 -43 -430 -17 -181 38 -303
95 -450 213 -169 135 -314 373 -354 579 -4 17 -9 41 -12 55 -13 57 -12 277 1
353 57 316 251 588 527 736 87 47 231 97 308 106 30 4 56 8 58 10 5 5 217 -2
267 -9z"/>
<path d="M24547 6204 c-1 -1 -46 -4 -99 -8 -53 -3 -102 -8 -110 -10 -7 -3 -31
-7 -53 -10 -114 -15 -312 -84 -452 -158 -145 -77 -262 -165 -393 -297 -205
-206 -355 -471 -424 -747 -43 -173 -51 -243 -51 -444 1 -168 4 -208 31 -340
100 -486 446 -932 886 -1143 90 -43 247 -101 298 -110 14 -3 43 -10 65 -15 22
-6 65 -14 95 -17 30 -4 66 -9 80 -11 41 -6 243 -6 306 1 52 5 113 15 194 31
375 73 748 326 968 654 l50 75 -408 3 -408 2 -63 -38 c-149 -90 -279 -125
-474 -126 -159 -1 -203 4 -308 39 -229 74 -417 217 -544 412 -51 78 -112 209
-128 275 l-7 28 1283 2 1283 3 9 40 c11 49 14 356 5 447 -39 358 -209 716
-461 972 -104 105 -169 159 -282 232 -182 118 -372 193 -595 233 -73 14 -285
32 -293 25z m276 -637 c326 -93 585 -329 702 -640 14 -37 25 -72 25 -77 0 -7
-347 -10 -975 -10 -536 0 -975 4 -975 8 0 47 88 228 158 328 153 216 417 383
650 411 26 3 49 7 51 9 3 3 66 2 140 0 105 -3 156 -10 224 -29z"/>
<path d="M12325 6182 c-20 -3 -20 -9 -20 -307 l0 -305 25 -1 c14 0 112 -1 218
0 l192 0 1 -592 c0 -326 2 -605 4 -622 17 -143 21 -161 51 -274 48 -178 161
-420 246 -526 4 -5 27 -35 50 -65 115 -151 317 -325 483 -415 365 -199 787
-234 1168 -98 141 50 268 120 436 241 18 12 18 5 19 -140 0 -84 0 -160 1 -168
1 -13 64 -15 519 -14 284 1 520 2 524 3 3 0 6 145 6 321 l1 320 -22 1 c-12 0
-104 1 -204 1 -161 1 -183 3 -184 17 -1 20 -1 1994 0 2002 1 4 84 7 186 7 102
0 194 1 204 1 18 1 19 13 20 306 l1 305 -43 1 c-54 1 -1390 1 -1398 0 -10 -2
-7 -601 4 -608 5 -3 94 -6 197 -6 l187 1 -1 -672 -2 -671 -27 -70 c-97 -245
-275 -446 -492 -553 -143 -72 -256 -97 -420 -96 -387 3 -736 261 -889 657
l-32 82 1 660 0 660 180 2 c99 1 192 2 208 2 l27 1 0 305 c0 237 -3 305 -12
306 -38 2 -1396 4 -1413 1z"/>
<path d="M20755 5873 l0 -318 195 -1 c107 -1 197 -2 200 -3 3 0 5 -462 5
-1026 l0 -1025 -35 -1 c-19 0 -109 -1 -200 -1 l-165 -1 0 -296 0 -296 690 0
690 0 3 296 2 297 -206 -2 c-113 0 -208 3 -211 8 -16 26 -5 1158 12 1246 70
364 339 671 686 784 89 28 116 34 222 43 l77 6 0 288 c0 185 -4 289 -10 290
-55 6 -207 -9 -285 -26 -33 -8 -71 -16 -85 -19 -49 -9 -165 -48 -227 -77 -35
-16 -66 -29 -68 -29 -13 0 -183 -107 -246 -155 -40 -30 -76 -51 -79 -46 -3 5
-4 93 -4 195 l2 186 -482 0 -481 0 0 -317z"/>
</g>
</svg>
